<?xml version="1.0" encoding="utf-8"?>
<!-- Generator: Adobe Illustrator 21.0.0, SVG Export Plug-In . SVG Version: 6.00 Build 0)  -->
<svg version="1.1" id="supportix-logo" xmlns="http://www.w3.org/2000/svg" xmlns:xlink="http://www.w3.org/1999/xlink" x="0px" y="0px"
	 viewBox="0 0 511.833 91.333" style="enable-background:new 0 0 511.833 91.333;" xml:space="preserve">
<g>
	<path style="fill:#E05C5C;" d="M440.355,90.965V23.788h7.812v67.176H440.355z"/>
	<path style="fill:#E05C5C;" d="M511.3,90.965h-8.868L484.374,61.42l-18.379,29.544h-8.271l22.331-35.104L459.24,23.788h8.639
		l16.679,26.604l16.817-26.604h8.316l-20.814,31.796L511.3,90.965z"/>
</g>
<g id="Слой_x0020_1">
	<g id="_360545144">
		<path style="fill:#FEFEFE;" d="M301.596,34.005l-4.238-3.759c-1.365-1.149-3.208-2.251-4.908-3.088
			c-9.984-5.004-21.404-5.148-31.364-0.144c-3.184,1.58-7.087,4.334-9.433,6.991c-2.538,2.897-4.741,6.201-6.297,10.127
			c-1.58,3.903-2.921,9.314-2.921,13.503c0,12.57,7.997,26.456,19.705,31.34c2.179,0.91,3.831,1.58,6.297,2.155
			c8.356,1.915,14.054,1.293,21.692-1.772C310.407,81.267,318.643,53.518,301.596,34.005z M277.056,84.714
			c-15.155,0-27.079-12.163-27.079-26.624c0-10.367,5.148-19.13,14.054-24.134c9.673-5.411,23.487-3.567,31.58,4.693
			C312.275,55.648,299.992,84.714,277.056,84.714z M47.977,59.407c-8.978-6.416-35.051-7.302-33.615-19.13
			c0.934-7.542,6.608-9.792,13.551-9.697c9.266,0.12,11.468,3.4,18.292,7.973c0.934,0.359,2.179-0.694,3.352-1.82
			c1.413-1.341,1.796-2.083,1.532-2.634c-1.772-3.328-6.369-6.512-10.08-8.116c-15.61-6.68-34.764-0.527-34.764,15.227
			c0,11.396,10.032,15.227,20.327,17.861c3.089,0.79,6.488,1.652,9.697,2.729c6.01,2.011,12.019,5.267,9.673,13.336
			c-2.059,7.039-10.702,9.577-17.502,9.577c-4.573,0-11.756-3.424-15.155-6.129c-1.484-1.173-2.37-2.586-3.927-3.639
			c-1.508,0.359-4.884,2.227-4.884,4.453c0,3.28,11.588,12.426,21.763,12.426c8.308,0,13.527-0.168,20.686-5.507
			C54.513,80.644,57.123,65.944,47.977,59.407z M112.788,24.332c-1.796,0-1.389,1.652-1.341,3.543l0.048,34.668
			c-0.144,11.827-6.656,22.17-17.789,22.17c-5.483,0-9.792,0.072-14.724-3.903c-0.503-0.407-0.694-0.599-1.149-1.101l-1.197-1.437
			c-7.087-8.739-5.124-22.266-5.124-33.95V25.841c0-0.838-0.67-1.508-1.508-1.508h-4.525c-0.838,0-1.508,0.67-1.508,1.508v35.362
			c0,10.511,2.322,16.209,7.231,22.051c9.17,10.966,25.642,11.636,36.512,4.357c6.464-4.31,10.846-11.684,10.846-20.638v-41.3
			C118.559,23.781,116.859,24.332,112.788,24.332z M227.423,29.144c-3.903-3.112-6.728-4.238-11.875-4.788
			c-0.718-0.072-1.652-0.048-2.49-0.048h-19.92c-2.634,0-3.543,0-3.543,1.556v63.519c0,0.814,0.694,1.508,1.508,1.508h4.549
			c0.838,0,1.508-0.694,1.508-1.508V67.141c0.024-0.79,0.431-1.485,1.293-1.485c1.221,0,1.868-0.048,3.136-0.024
			c13.408,0.12,24.469,1.317,30.79-11.827C236.761,44.707,233.193,33.789,227.423,29.144z M211.358,58.522h-12.881
			c-1.029,0-1.772-0.718-1.772-1.772V32.784c0-1.029,0.311-1.341,1.341-1.341h15.538c5.387,0,10.295,4.166,11.851,7.231
			C229.722,47.173,224.622,58.522,211.358,58.522z M368.323,84.02l-9.433-19.609c5.555-1.484,12.306-10.128,12.306-16.975
			c0-7.638-1.317-13.982-7.805-18.842c-4.908-3.711-9.625-4.693-17.957-4.693h-19.082c-1.58,0-3.568,0.216-3.568,1.772v51.428
			h-0.048v12.33c0,0.838,0.646,1.508,1.436,1.508h4.31c0.79,0,1.437-0.67,1.437-1.508v-4.98h0.048c0-1.604-0.024-3.567-0.048-5.938
			v-1.413c-0.024-1.341-0.024-2.777-0.024-4.357c0.072-1.508-0.024-3.017,0.024-4.429c0.048-0.958-0.096-1.676,1.245-1.772
			c0.718-0.072,1.748-0.024,2.514-0.024h16.975c0.359,0,0.67,0.048,0.838,0.096c0.191,0.048,0.742,0.263,0.982,0.718l9.242,19.01
			c1.437,2.993,1.724,4.597,3.687,4.597l4.334,0.024c1.843,0,1.484-0.766,0.982-1.963C370.023,87.348,369.089,85.887,368.323,84.02z
			 M351.659,58.976h-20.566c-0.838,0-1.173-0.623-1.197-1.173v-25.02c0-1.029,0.311-1.341,1.341-1.341h19.082
			c11.684,0,18.483,14.629,9.888,23.2C358.267,56.582,355.299,58.976,351.659,58.976z M427.556,25.673
			c0-1.556-1.963-1.772-3.543-1.772h-42.617c-1.58,0-3.544,0.216-3.544,1.772c0,5.028-0.718,5.794,2.37,5.794l17.214-0.024
			c1.532,0.168,1.748,0.646,1.748,2.346c0.024,1.269-0.024,3.184-0.024,6.081l-0.024,26.983v22.578c0,0.814,0.646,1.508,1.437,1.508
			h4.262c0.766,0,1.413-0.694,1.413-1.508V64.1c0-0.024,0-0.024,0-0.048l-0.024-29.09c0.12-2.849-0.431-3.52,2.203-3.52
			l16.233,0.024C428.37,31.467,427.556,30.916,427.556,25.673z M170.585,29.216c-3.879-3.136-6.704-4.238-11.851-4.788
			c-0.718-0.072-1.652-0.072-2.49-0.072l-19.92,0.024c-2.634-0.024-3.544,0-3.544,1.556v63.495c0,0.838,0.694,1.508,1.508,1.508
			h4.549c0.838,0,1.508-0.67,1.508-1.508V67.189c0.024-0.79,0.431-1.484,1.293-1.484c1.197,0,1.868-0.024,3.136-0.024
			c13.408,0.144,24.469,1.341,30.79-11.827C179.922,44.779,176.379,33.861,170.585,29.216z M154.544,58.593h-12.881
			c-1.029,0-1.772-0.742-1.772-1.772v-23.99c0-1.006,0.311-1.317,1.341-1.317h15.538c5.387,0,10.295,4.142,11.851,7.23
			C172.907,47.245,167.807,58.593,154.544,58.593z"/>
	</g>
</g>
<polyline style="fill:none;stroke:#E05C5C;stroke-width:4;" points="472.583,1.968 485.096,12.972 496.667,1.883 "/>
</svg>
